  <svg   height="48" viewBox="0 0 230 48" fill="none" xmlns="http://www.w3.org/2000/svg">
<path d="M27.2617 35.6983C27.7558 35.6983 28.1563 35.2978 28.1563 34.8037C28.1563 34.3097 27.7558 33.9092 27.2617 33.9092C26.7677 33.9092 26.3672 34.3097 26.3672 34.8037C26.3672 35.2978 26.7677 35.6983 27.2617 35.6983Z" fill="#2C3444"/>
<path d="M20.5664 33.1128C21.0605 33.1128 21.461 32.7123 21.461 32.2183C21.461 31.7242 21.0605 31.3237 20.5664 31.3237C20.0724 31.3237 19.6719 31.7242 19.6719 32.2183C19.6719 32.7123 20.0724 33.1128 20.5664 33.1128Z" fill="#2C3444"/>
<path d="M32.3399 27.9383C32.8339 27.9383 33.2344 27.5378 33.2344 27.0437C33.2344 26.5497 32.8339 26.1492 32.3399 26.1492C31.8458 26.1492 31.4453 26.5497 31.4453 27.0437C31.4453 27.5378 31.8458 27.9383 32.3399 27.9383Z" fill="#2C3444"/>
<path d="M30.707 24.6292C31.2011 24.6292 31.6016 24.2287 31.6016 23.7346C31.6016 23.2406 31.2011 22.8401 30.707 22.8401C30.213 22.8401 29.8125 23.2406 29.8125 23.7346C29.8125 24.2287 30.213 24.6292 30.707 24.6292Z" fill="#2C3444"/>
<path d="M20.8477 19.6983C21.3417 19.6983 21.7422 19.2978 21.7422 18.8037C21.7422 18.3097 21.3417 17.9092 20.8477 17.9092C20.3536 17.9092 19.9531 18.3097 19.9531 18.8037C19.9531 19.2978 20.3536 19.6983 20.8477 19.6983Z" fill="#2C3444"/>
<path d="M21.2305 28.4837C21.7245 28.4837 22.125 28.0832 22.125 27.5891C22.125 27.0951 21.7245 26.6946 21.2305 26.6946C20.7364 26.6946 20.3359 27.0951 20.3359 27.5891C20.3359 28.0832 20.7364 28.4837 21.2305 28.4837Z" fill="#2C3444"/>
<path d="M27.2617 16.7237C27.7558 16.7237 28.1563 16.3232 28.1563 15.8291C28.1563 15.3351 27.7558 14.9346 27.2617 14.9346C26.7677 14.9346 26.3672 15.3351 26.3672 15.8291C26.3672 16.3232 26.7677 16.7237 27.2617 16.7237Z" fill="#2C3444"/>
<path d="M18.948 23.5309H18.5625V22.7964H19.297V21.2182H19.9516V20.7273H20.337V21.6H19.6825V23.1818H18.948V23.5309Z" fill="#2C3444"/>
<path d="M24.9089 24.6292H24.5234V27.5892H24.9089V24.6292Z" fill="#2C3444"/>
<path d="M22.0459 26.3639H21.6641V25.0293H22.5332V24.033H22.9186V25.4111H22.0459V26.3639Z" fill="#2C3444"/>
<path d="M21.4206 24.3347H20.1406V23.9493H21.0388V23.2329H22.2897V23.6147H21.4206V24.3347Z" fill="#2C3444"/>
<path d="M22.1383 19.8979L21.8438 20.1465L22.5778 21.0163L22.8724 20.7677L22.1383 19.8979Z" fill="#2C3444"/>
<path d="M26.2162 20.211H25.2344V19.8292H25.8307V17.9492H26.8671V18.3347H26.2162V20.211Z" fill="#2C3444"/>
<path d="M30.1376 22.1163H29.7522V21.6H29.1267V20.4182L28.3631 20.2909V18.7782L27.7812 18.2909L28.0249 17.9963L28.7485 18.5963V19.9672L29.5122 20.0945V21.2182H30.1376V22.1163Z" fill="#2C3444"/>
<path d="M28.7457 23.6147H27.3275V22.8801H26.4766V22.4983H27.7129V23.2328H28.7457V23.6147Z" fill="#2C3444"/>
<path d="M34.0778 24.5674H32.3359V24.9528H34.0778V24.5674Z" fill="#2C3444"/>
<path d="M36.0135 23.5309H35.6281V23.0327H35.0499V21.52H34.4062V21.1345H35.4317V22.6509H36.0135V23.5309Z" fill="#2C3444"/>
<path d="M34.5964 30.1492H34.2109V29.1129H34.92V27.7456H36.0073V28.1311H35.3018V29.4983H34.5964V30.1492Z" fill="#2C3444"/>
<path d="M33.4232 30.1492H33.0378V29.4692H32.3359V29.0837H33.4232V30.1492Z" fill="#2C3444"/>
<path d="M28.6901 33.3965H28.3047V31.7528H28.9883V31.131H29.6174V29.7565H30.2683V29.0837H31.112V28.4983H31.4938V29.4692H30.6501V30.1419H30.0029V31.5165H29.3701V32.1383H28.6901V33.3965Z" fill="#2C3444"/>
<path d="M30.1378 34.102H29.0469V33.7165H29.7523V32.9202H31.4469V33.302H30.1378V34.102Z" fill="#2C3444"/>
<path d="M33.9792 25.8728H33.5938V27.0437H33.9792V25.8728Z" fill="#2C3444"/>
<path d="M31.987 22.1164H31.6016V21.1346H32.4379V20.5637H32.8197V21.5201H31.987V22.1164Z" fill="#2C3444"/>
<path d="M31.4978 18.3346H31.116V17.571L29.7305 17.7346L29.8141 16.9165H29.0469V16.531H30.2396L30.1596 17.2983L31.4978 17.1346V18.3346Z" fill="#2C3444"/>
<path d="M22.9167 18.1419H22.5312V17.3346H24.5203V16.531H25.5567V16.9165H24.9022V17.7201H22.9167V18.1419Z" fill="#2C3444"/>
<path d="M22.9167 27.9382H22.5312V28.7855H22.9167V27.9382Z" fill="#2C3444"/>
<path d="M21.0373 29.9492H20.6555V29.4692H19.2918V28.1311H18.75V27.7456H19.6773V29.0838H21.0373V29.9492Z" fill="#2C3444"/>
<path d="M20.1511 29.9492H19.7656V30.7492H20.1511V29.9492Z" fill="#2C3444"/>
<path d="M21.7382 31.8328L21.4219 31.6183L21.7564 31.1237L22.531 31.1892V30.4946H22.9164V31.611L21.9491 31.5237L21.7382 31.8328Z" fill="#2C3444"/>
<path d="M25.5567 34.611H25.1749V34.1019H23.9494V33.4437H22.5312V32.3528H22.9167V33.0582H24.3312V33.7164H25.5567V34.611Z" fill="#2C3444"/>
<path d="M29.2605 25.0602L26.6172 27.8003L26.8946 28.0679L29.5379 25.3278L29.2605 25.0602Z" fill="#2C3444"/>
<path d="M27.2766 29.502L26.8984 29.4329L27.1093 28.3056H29.1275V27.7456H30.7093V28.1311H29.513V28.6874H27.4293L27.2766 29.502Z" fill="#2C3444"/>
<path d="M18.3295 24.1418C18.0419 24.1418 17.7606 24.2272 17.5214 24.387C17.2822 24.5468 17.0958 24.774 16.9857 25.0398C16.8756 25.3055 16.8468 25.598 16.9029 25.8802C16.9591 26.1623 17.0976 26.4215 17.301 26.6249C17.5044 26.8283 17.7636 26.9669 18.0458 27.023C18.3279 27.0791 18.6204 27.0503 18.8862 26.9402C19.152 26.8301 19.3791 26.6437 19.539 26.4045C19.6988 26.1653 19.7841 25.8841 19.7841 25.5964C19.7841 25.2106 19.6308 24.8407 19.3581 24.5679C19.0853 24.2951 18.7153 24.1418 18.3295 24.1418ZM18.6932 25.96H17.9768V25.2546H18.6823L18.6932 25.96Z" fill="#2C3444"/>
<path d="M24.4233 21.1272C24.1356 21.1272 23.8544 21.2125 23.6152 21.3723C23.376 21.5322 23.1896 21.7593 23.0795 22.0251C22.9694 22.2909 22.9406 22.5834 22.9967 22.8655C23.0528 23.1477 23.1914 23.4068 23.3948 23.6103C23.5982 23.8137 23.8574 23.9522 24.1395 24.0083C24.4217 24.0645 24.7141 24.0357 24.9799 23.9256C25.2457 23.8155 25.4729 23.629 25.6327 23.3898C25.7925 23.1506 25.8778 22.8694 25.8778 22.5817C25.8778 22.196 25.7246 21.826 25.4518 21.5532C25.179 21.2804 24.8091 21.1272 24.4233 21.1272ZM24.816 22.9745H24.1106V22.269H24.816V22.9745Z" fill="#2C3444"/>
<path d="M33.7905 30.4946C33.5028 30.4946 33.2216 30.5799 32.9824 30.7398C32.7432 30.8996 32.5567 31.1268 32.4467 31.3925C32.3366 31.6583 32.3078 31.9508 32.3639 32.2329C32.42 32.5151 32.5585 32.7743 32.762 32.9777C32.9654 33.1811 33.2246 33.3197 33.5067 33.3758C33.7889 33.4319 34.0813 33.4031 34.3471 33.293C34.6129 33.1829 34.8401 32.9965 34.9999 32.7573C35.1597 32.5181 35.245 32.2369 35.245 31.9492C35.245 31.5634 35.0918 31.1934 34.819 30.9207C34.5462 30.6479 34.1763 30.4946 33.7905 30.4946ZM34.1541 32.3128H33.4487V31.6074H34.1541V32.3128Z" fill="#2C3444"/>
<path d="M36.478 23.8875C36.1903 23.8875 35.9091 23.9728 35.6699 24.1326C35.4307 24.2924 35.2442 24.5196 35.1342 24.7854C35.0241 25.0512 34.9953 25.3436 35.0514 25.6258C35.1075 25.9079 35.246 26.1671 35.4495 26.3705C35.6529 26.5739 35.9121 26.7125 36.1942 26.7686C36.4764 26.8247 36.7688 26.7959 37.0346 26.6858C37.3004 26.5757 37.5276 26.3893 37.6874 26.1501C37.8472 25.9109 37.9325 25.6297 37.9325 25.342C37.9325 24.9562 37.7793 24.5863 37.5065 24.3135C37.2337 24.0407 36.8638 23.8875 36.478 23.8875ZM36.8634 25.7456H36.158V25.0402H36.8634V25.7456Z" fill="#2C3444"/>
<path d="M34.0639 17.3528C33.7762 17.3528 33.495 17.4381 33.2558 17.5979C33.0166 17.7578 32.8302 17.9849 32.7201 18.2507C32.61 18.5165 32.5812 18.8089 32.6373 19.0911C32.6934 19.3733 32.832 19.6324 33.0354 19.8359C33.2388 20.0393 33.498 20.1778 33.7802 20.2339C34.0623 20.2901 34.3548 20.2612 34.6206 20.1512C34.8863 20.0411 35.1135 19.8546 35.2733 19.6154C35.4332 19.3762 35.5185 19.095 35.5185 18.8073C35.5185 18.4216 35.3652 18.0516 35.0924 17.7788C34.8197 17.506 34.4497 17.3528 34.0639 17.3528ZM34.4494 19.171H33.7439V18.4655H34.4494V19.171Z" fill="#2C3444"/>
<path d="M25.0249 28.4983C24.7372 28.4983 24.456 28.5836 24.2168 28.7434C23.9776 28.9032 23.7911 29.1304 23.681 29.3962C23.5709 29.662 23.5421 29.9545 23.5983 30.2366C23.6544 30.5188 23.7929 30.7779 23.9963 30.9814C24.1998 31.1848 24.4589 31.3233 24.7411 31.3794C25.0232 31.4356 25.3157 31.4068 25.5815 31.2967C25.8473 31.1866 26.0744 31.0001 26.2343 30.7609C26.3941 30.5217 26.4794 30.2405 26.4794 29.9528C26.4794 29.5671 26.3262 29.1971 26.0534 28.9243C25.7806 28.6515 25.4106 28.4983 25.0249 28.4983ZM25.3885 30.4037H24.6612V29.6983H25.3885V30.4037Z" fill="#2C3444"/>
<path d="M1.19531 16.9891L34.1553 0L38.9808 3.54182L5.99531 21.4836L1.19531 16.9891Z" fill="#0776D4"/>
<path d="M33.2082 5.98926L53.681 25.4111L53.6482 32.9129L49.0555 35.4438L48.5646 28.3783L28.1719 9.04017L32.8882 5.98926H33.2082Z" fill="#0776D4"/>
<path d="M47.1382 29.9563L24.9891 40.7818L0 17.5454V25.7636L24.5018 48L47.5855 35.9891L47.1382 29.9563Z" fill="#F1701F"/>
<path d="M69.84 13.3994L75.278 29.8461H75.4923L80.9201 13.3994H85.0828L77.7164 34.2945H73.0436L65.6875 13.3994H69.84Z" fill="#0776D4"/>
<path d="M115.405 22.7655L112.038 23.1328C111.943 22.7927 111.776 22.473 111.538 22.1737C111.307 21.8744 110.994 21.633 110.6 21.4493C110.205 21.2657 109.722 21.1738 109.151 21.1738C108.382 21.1738 107.736 21.3405 107.212 21.6738C106.695 22.0071 106.44 22.439 106.447 22.9695C106.44 23.4252 106.607 23.7959 106.947 24.0816C107.294 24.3673 107.865 24.6019 108.661 24.7856L111.334 25.3569C112.817 25.6766 113.919 26.1834 114.64 26.8771C115.368 27.5709 115.735 28.4789 115.742 29.6012C115.735 30.5875 115.446 31.4581 114.875 32.2131C114.31 32.9613 113.524 33.5463 112.518 33.968C111.511 34.3897 110.355 34.6005 109.049 34.6005C107.131 34.6005 105.587 34.1992 104.417 33.3966C103.247 32.5872 102.55 31.4615 102.325 30.0196L105.927 29.6727C106.09 30.38 106.437 30.914 106.967 31.2745C107.498 31.635 108.188 31.8152 109.039 31.8152C109.916 31.8152 110.62 31.635 111.151 31.2745C111.688 30.914 111.957 30.4685 111.957 29.9379C111.957 29.489 111.783 29.1183 111.436 28.8258C111.096 28.5334 110.566 28.3089 109.845 28.1525L107.172 27.5913C105.668 27.2784 104.556 26.7513 103.835 26.0099C103.114 25.2617 102.757 24.3163 102.764 23.1736C102.757 22.2077 103.019 21.3711 103.55 20.6637C104.087 19.9495 104.832 19.3986 105.784 19.0109C106.743 18.6164 107.848 18.4191 109.1 18.4191C110.936 18.4191 112.382 18.8102 113.436 19.5924C114.497 20.3746 115.153 21.4323 115.405 22.7655Z" fill="#0776D4"/>
<path d="M131.173 22.7655L127.806 23.1328C127.711 22.7927 127.545 22.473 127.306 22.1737C127.075 21.8744 126.762 21.633 126.368 21.4493C125.973 21.2657 125.49 21.1738 124.919 21.1738C124.15 21.1738 123.504 21.3405 122.981 21.6738C122.464 22.0071 122.209 22.439 122.215 22.9695C122.209 23.4252 122.375 23.7959 122.715 24.0816C123.062 24.3673 123.634 24.6019 124.429 24.7856L127.102 25.3569C128.585 25.6766 129.687 26.1834 130.408 26.8771C131.136 27.5709 131.503 28.4789 131.51 29.6012C131.503 30.5875 131.214 31.4581 130.643 32.2131C130.078 32.9613 129.293 33.5463 128.286 33.968C127.279 34.3897 126.123 34.6005 124.817 34.6005C122.899 34.6005 121.355 34.1992 120.185 33.3966C119.015 32.5872 118.318 31.4615 118.093 30.0196L121.695 29.6727C121.858 30.38 122.205 30.914 122.736 31.2745C123.266 31.635 123.957 31.8152 124.807 31.8152C125.684 31.8152 126.388 31.635 126.919 31.2745C127.456 30.914 127.725 30.4685 127.725 29.9379C127.725 29.489 127.551 29.1183 127.204 28.8258C126.864 28.5334 126.334 28.3089 125.613 28.1525L122.94 27.5913C121.437 27.2784 120.324 26.7513 119.603 26.0099C118.882 25.2617 118.525 24.3163 118.532 23.1736C118.525 22.2077 118.787 21.3711 119.318 20.6637C119.855 19.9495 120.6 19.3986 121.552 19.0109C122.511 18.6164 123.617 18.4191 124.868 18.4191C126.705 18.4191 128.15 18.8102 129.204 19.5924C130.265 20.3746 130.922 21.4323 131.173 22.7655Z" fill="#0776D4"/>
<path d="M155.28 13.3994V34.2945H151.586V13.3994H155.28Z" fill="#0776D4"/>
<path d="M158.323 16.5724V13.3994H174.994V16.5724H168.535V34.2945H164.781V16.5724H158.323Z" fill="#F1701F"/>
<path d="M176.417 34.2945V18.6232H179.998V21.2351H180.161C180.447 20.3304 180.937 19.6332 181.631 19.1435C182.331 18.647 183.13 18.3987 184.028 18.3987C184.232 18.3987 184.46 18.4089 184.712 18.4293C184.97 18.4429 185.184 18.4667 185.355 18.5007V21.8982C185.198 21.8438 184.95 21.7962 184.61 21.7554C184.276 21.7078 183.953 21.684 183.64 21.684C182.967 21.684 182.362 21.8302 181.824 22.1227C181.294 22.4084 180.876 22.8063 180.569 23.3164C180.263 23.8265 180.11 24.4149 180.11 25.0815V34.2945H176.417Z" fill="#F1701F"/>
<path d="M197.797 27.7035V18.6232H201.49V34.2945H197.909V31.5091H197.746C197.392 32.3866 196.81 33.1042 196.001 33.6619C195.198 34.2196 194.209 34.4985 193.032 34.4985C192.005 34.4985 191.097 34.2707 190.308 33.8149C189.526 33.3524 188.914 32.6824 188.471 31.805C188.029 30.9208 187.808 29.8529 187.808 28.6014V18.6232H191.502V28.03C191.502 29.0231 191.774 29.8121 192.318 30.3971C192.862 30.982 193.576 31.2745 194.46 31.2745C195.005 31.2745 195.532 31.1418 196.042 30.8766C196.552 30.6113 196.97 30.2168 197.297 29.6931C197.63 29.1625 197.797 28.4994 197.797 27.7035Z" fill="#F1701F"/>
<path d="M217.674 22.7655L214.307 23.1328C214.212 22.7927 214.045 22.473 213.807 22.1737C213.576 21.8744 213.263 21.633 212.869 21.4493C212.474 21.2657 211.991 21.1738 211.42 21.1738C210.651 21.1738 210.005 21.3405 209.481 21.6738C208.964 22.0071 208.709 22.439 208.716 22.9695C208.709 23.4252 208.876 23.7959 209.216 24.0816C209.563 24.3673 210.134 24.6019 210.93 24.7856L213.603 25.3569C215.086 25.6766 216.188 26.1834 216.909 26.8771C217.637 27.5709 218.004 28.4789 218.011 29.6012C218.004 30.5875 217.715 31.4581 217.143 32.2131C216.579 32.9613 215.793 33.5463 214.787 33.968C213.78 34.3897 212.624 34.6005 211.318 34.6005C209.4 34.6005 207.856 34.1992 206.686 33.3966C205.516 32.5872 204.819 31.4615 204.594 30.0196L208.196 29.6727C208.359 30.38 208.706 30.914 209.236 31.2745C209.767 31.635 210.457 31.8152 211.308 31.8152C212.185 31.8152 212.889 31.635 213.419 31.2745C213.957 30.914 214.225 30.4685 214.225 29.9379C214.225 29.489 214.052 29.1183 213.705 28.8258C213.365 28.5334 212.835 28.3089 212.114 28.1525L209.44 27.5913C207.937 27.2784 206.825 26.7513 206.104 26.0099C205.383 25.2617 205.026 24.3163 205.033 23.1736C205.026 22.2077 205.288 21.3711 205.818 20.6637C206.356 19.9495 207.101 19.3986 208.053 19.0109C209.012 18.6164 210.117 18.4191 211.369 18.4191C213.205 18.4191 214.651 18.8102 215.705 19.5924C216.766 20.3746 217.422 21.4323 217.674 22.7655Z" fill="#F1701F"/>
<path fill-rule="evenodd" clip-rule="evenodd" d="M92.9261 34.6005C91.3548 34.6005 89.9979 34.2741 88.8552 33.6211C87.7193 32.9613 86.8453 32.0295 86.2331 30.8256C85.621 29.6148 85.3149 28.1899 85.3149 26.5506C85.3149 24.9386 85.621 23.5239 86.2331 22.3063C86.8521 21.082 87.7159 20.1298 88.8246 19.4496C89.9333 18.7626 91.2358 18.4191 92.7322 18.4191C93.6981 18.4191 94.6095 18.5756 95.4665 18.8884C96.3303 19.1945 97.0921 19.6707 97.7519 20.3168C98.4185 20.963 98.9422 21.786 99.3231 22.7859C99.704 23.7789 99.8945 24.9624 99.8945 26.3364V27.4689H88.9813C88.9813 28.3803 89.1443 29.0707 89.4776 29.7237C89.8108 30.3698 90.2768 30.8664 90.8753 31.2133C91.4739 31.5534 92.1745 31.7234 92.9771 31.7234C93.5144 31.7234 94.0007 31.6486 94.4361 31.4989C94.8714 31.3425 95.2489 31.1146 95.5685 30.8154C95.8882 30.5161 96.1297 30.1454 96.2929 29.7033L99.7414 30.091C99.5238 31.0024 99.1089 31.7982 98.4967 32.4784C97.8913 33.1518 97.1159 33.6755 96.1705 34.0496C95.2251 34.4169 94.1436 34.6005 92.9261 34.6005ZM96.3541 24.9794H88.9813C88.9881 24.2789 89.1443 23.8605 89.4571 23.2756C89.7768 22.6838 90.2223 22.2077 90.7937 21.8472C91.365 21.4799 92.0282 21.2963 92.7832 21.2963C93.4906 21.2963 94.1096 21.4561 94.6401 21.7758C95.1774 22.0955 95.5958 22.5342 95.895 23.0919C96.1943 23.6429 96.3473 24.2721 96.3541 24.9794Z" fill="#0776D4"/>
<path fill-rule="evenodd" clip-rule="evenodd" d="M141.493 34.6005C139.922 34.6005 138.565 34.2741 137.422 33.6211C136.287 32.9613 135.412 32.0295 134.8 30.8256C134.188 29.6148 133.882 28.1899 133.882 26.5506C133.882 24.9386 134.188 23.5239 134.8 22.3063C135.419 21.082 136.283 20.1298 137.392 19.4496C138.5 18.7626 139.803 18.4191 141.299 18.4191C142.265 18.4191 143.177 18.5756 144.034 18.8884C144.898 19.1945 145.659 19.6707 146.319 20.3168C146.986 20.963 147.509 21.786 147.89 22.7859C148.271 23.7789 148.462 24.9624 148.462 26.3364V27.4689H137.545C137.545 28.3803 137.711 29.0707 138.045 29.7237C138.378 30.3698 138.844 30.8664 139.443 31.2133C140.041 31.5534 140.742 31.7234 141.544 31.7234C142.082 31.7234 142.568 31.6486 143.003 31.4989C143.439 31.3425 143.816 31.1146 144.136 30.8154C144.455 30.5161 144.697 30.1454 144.86 29.7033L148.309 30.091C148.091 31.0024 147.676 31.7982 147.064 32.4784C146.459 33.1518 145.683 33.6755 144.738 34.0496C143.792 34.4169 142.711 34.6005 141.493 34.6005ZM144.921 24.9794H137.545C137.552 24.2789 137.711 23.8605 138.024 23.2756C138.344 22.6838 138.79 22.2077 139.361 21.8472C139.932 21.4799 140.595 21.2963 141.35 21.2963C142.058 21.2963 142.677 21.4561 143.207 21.7758C143.745 22.0955 144.163 22.5342 144.462 23.0919C144.762 23.6429 144.915 24.2721 144.921 24.9794Z" fill="#0776D4"/>
<path fill-rule="evenodd" clip-rule="evenodd" d="M228.882 21.4799V18.6232H225.79V14.8686H222.097V18.6232H219.873V21.4799H222.097V30.193C222.09 31.1725 222.301 31.9887 222.729 32.6416C223.165 33.2946 223.753 33.7775 224.494 34.0904C225.236 34.3965 226.069 34.5359 226.994 34.5087C227.518 34.4951 227.96 34.4475 228.32 34.3659C228.688 34.2843 228.97 34.2094 229.167 34.1414L228.545 31.2541C228.443 31.2813 228.293 31.3119 228.096 31.3459C227.906 31.3799 227.695 31.3969 227.463 31.3969C227.157 31.3969 226.878 31.3493 226.627 31.2541C226.375 31.1588 226.171 30.982 226.015 30.7235C225.865 30.4583 225.79 30.0774 225.79 29.5808V21.4799H228.882ZM225.79 21.4799V18.6232H222.097V21.4799H225.79Z" fill="#F1701F"/>
<path d="M225.79 21.4799V18.6232H222.097V21.4799H225.79Z" fill="#F1701F"/>
</svg>