
    <svg 
      width="54"
      height="48"
      viewBox="0 0 54 48"
      fill="none"
      xmlns="http://www.w3.org/2000/svg"
    >
      <path
        d="M27.2617 35.6983C27.7558 35.6983 28.1563 35.2978 28.1563 34.8037C28.1563 34.3097 27.7558 33.9092 27.2617 33.9092C26.7677 33.9092 26.3672 34.3097 26.3672 34.8037C26.3672 35.2978 26.7677 35.6983 27.2617 35.6983Z"
        fill="#2C3444"
      />
      <path
        d="M20.5664 33.1128C21.0605 33.1128 21.461 32.7123 21.461 32.2183C21.461 31.7242 21.0605 31.3237 20.5664 31.3237C20.0724 31.3237 19.6719 31.7242 19.6719 32.2183C19.6719 32.7123 20.0724 33.1128 20.5664 33.1128Z"
        fill="#2C3444"
      />
      <path
        d="M32.3399 27.9383C32.8339 27.9383 33.2344 27.5378 33.2344 27.0437C33.2344 26.5497 32.8339 26.1492 32.3399 26.1492C31.8458 26.1492 31.4453 26.5497 31.4453 27.0437C31.4453 27.5378 31.8458 27.9383 32.3399 27.9383Z"
        fill="#2C3444"
      />
      <path
        d="M30.707 24.6292C31.2011 24.6292 31.6016 24.2287 31.6016 23.7346C31.6016 23.2406 31.2011 22.8401 30.707 22.8401C30.213 22.8401 29.8125 23.2406 29.8125 23.7346C29.8125 24.2287 30.213 24.6292 30.707 24.6292Z"
        fill="#2C3444"
      />
      <path
        d="M20.8477 19.6983C21.3417 19.6983 21.7422 19.2978 21.7422 18.8037C21.7422 18.3097 21.3417 17.9092 20.8477 17.9092C20.3536 17.9092 19.9531 18.3097 19.9531 18.8037C19.9531 19.2978 20.3536 19.6983 20.8477 19.6983Z"
        fill="#2C3444"
      />
      <path
        d="M21.2305 28.4837C21.7245 28.4837 22.125 28.0832 22.125 27.5891C22.125 27.0951 21.7245 26.6946 21.2305 26.6946C20.7364 26.6946 20.3359 27.0951 20.3359 27.5891C20.3359 28.0832 20.7364 28.4837 21.2305 28.4837Z"
        fill="#2C3444"
      />
      <path
        d="M27.2617 16.7237C27.7558 16.7237 28.1563 16.3232 28.1563 15.8291C28.1563 15.3351 27.7558 14.9346 27.2617 14.9346C26.7677 14.9346 26.3672 15.3351 26.3672 15.8291C26.3672 16.3232 26.7677 16.7237 27.2617 16.7237Z"
        fill="#2C3444"
      />
      <path
        d="M18.948 23.5309H18.5625V22.7964H19.297V21.2182H19.9516V20.7273H20.337V21.6H19.6825V23.1818H18.948V23.5309Z"
        fill="#2C3444"
      />
      <path
        d="M24.9089 24.6292H24.5234V27.5892H24.9089V24.6292Z"
        fill="#2C3444"
      />
      <path
        d="M22.0459 26.3639H21.6641V25.0293H22.5332V24.033H22.9186V25.4111H22.0459V26.3639Z"
        fill="#2C3444"
      />
      <path
        d="M21.4206 24.3347H20.1406V23.9493H21.0388V23.2329H22.2897V23.6147H21.4206V24.3347Z"
        fill="#2C3444"
      />
      <path
        d="M22.1383 19.8979L21.8438 20.1465L22.5778 21.0163L22.8724 20.7677L22.1383 19.8979Z"
        fill="#2C3444"
      />
      <path
        d="M26.2162 20.211H25.2344V19.8292H25.8307V17.9492H26.8671V18.3347H26.2162V20.211Z"
        fill="#2C3444"
      />
      <path
        d="M30.1376 22.1163H29.7522V21.6H29.1267V20.4182L28.3631 20.2909V18.7782L27.7812 18.2909L28.0249 17.9963L28.7485 18.5963V19.9672L29.5122 20.0945V21.2182H30.1376V22.1163Z"
        fill="#2C3444"
      />
      <path
        d="M28.7457 23.6147H27.3275V22.8801H26.4766V22.4983H27.7129V23.2328H28.7457V23.6147Z"
        fill="#2C3444"
      />
      <path
        d="M34.0778 24.5674H32.3359V24.9528H34.0778V24.5674Z"
        fill="#2C3444"
      />
      <path
        d="M36.0135 23.5309H35.6281V23.0327H35.0499V21.52H34.4062V21.1345H35.4317V22.6509H36.0135V23.5309Z"
        fill="#2C3444"
      />
      <path
        d="M34.5964 30.1492H34.2109V29.1129H34.92V27.7456H36.0073V28.1311H35.3018V29.4983H34.5964V30.1492Z"
        fill="#2C3444"
      />
      <path
        d="M33.4232 30.1492H33.0378V29.4692H32.3359V29.0837H33.4232V30.1492Z"
        fill="#2C3444"
      />
      <path
        d="M28.6901 33.3965H28.3047V31.7528H28.9883V31.131H29.6174V29.7565H30.2683V29.0837H31.112V28.4983H31.4938V29.4692H30.6501V30.1419H30.0029V31.5165H29.3701V32.1383H28.6901V33.3965Z"
        fill="#2C3444"
      />
      <path
        d="M30.1378 34.102H29.0469V33.7165H29.7523V32.9202H31.4469V33.302H30.1378V34.102Z"
        fill="#2C3444"
      />
      <path
        d="M33.9792 25.8728H33.5938V27.0437H33.9792V25.8728Z"
        fill="#2C3444"
      />
      <path
        d="M31.987 22.1164H31.6016V21.1346H32.4379V20.5637H32.8197V21.5201H31.987V22.1164Z"
        fill="#2C3444"
      />
      <path
        d="M31.4978 18.3346H31.116V17.571L29.7305 17.7346L29.8141 16.9165H29.0469V16.531H30.2396L30.1596 17.2983L31.4978 17.1346V18.3346Z"
        fill="#2C3444"
      />
      <path
        d="M22.9167 18.1419H22.5312V17.3346H24.5203V16.531H25.5567V16.9165H24.9022V17.7201H22.9167V18.1419Z"
        fill="#2C3444"
      />
      <path
        d="M22.9167 27.9382H22.5312V28.7855H22.9167V27.9382Z"
        fill="#2C3444"
      />
      <path
        d="M21.0373 29.9492H20.6555V29.4692H19.2918V28.1311H18.75V27.7456H19.6773V29.0838H21.0373V29.9492Z"
        fill="#2C3444"
      />
      <path
        d="M20.1511 29.9492H19.7656V30.7492H20.1511V29.9492Z"
        fill="#2C3444"
      />
      <path
        d="M21.7382 31.8328L21.4219 31.6183L21.7564 31.1237L22.531 31.1892V30.4946H22.9164V31.611L21.9491 31.5237L21.7382 31.8328Z"
        fill="#2C3444"
      />
      <path
        d="M25.5567 34.611H25.1749V34.1019H23.9494V33.4437H22.5312V32.3528H22.9167V33.0582H24.3312V33.7164H25.5567V34.611Z"
        fill="#2C3444"
      />
      <path
        d="M29.2605 25.0602L26.6172 27.8003L26.8946 28.0679L29.5379 25.3278L29.2605 25.0602Z"
        fill="#2C3444"
      />
      <path
        d="M27.2766 29.502L26.8984 29.4329L27.1093 28.3056H29.1275V27.7456H30.7093V28.1311H29.513V28.6874H27.4293L27.2766 29.502Z"
        fill="#2C3444"
      />
      <path
        d="M18.3295 24.1418C18.0419 24.1418 17.7606 24.2272 17.5214 24.387C17.2822 24.5468 17.0958 24.774 16.9857 25.0398C16.8756 25.3055 16.8468 25.598 16.9029 25.8802C16.9591 26.1623 17.0976 26.4215 17.301 26.6249C17.5044 26.8283 17.7636 26.9669 18.0458 27.023C18.3279 27.0791 18.6204 27.0503 18.8862 26.9402C19.152 26.8301 19.3791 26.6437 19.539 26.4045C19.6988 26.1653 19.7841 25.8841 19.7841 25.5964C19.7841 25.2106 19.6308 24.8407 19.3581 24.5679C19.0853 24.2951 18.7153 24.1418 18.3295 24.1418ZM18.6932 25.96H17.9768V25.2546H18.6823L18.6932 25.96Z"
        fill="#2C3444"
      />
      <path
        d="M24.4233 21.1272C24.1356 21.1272 23.8544 21.2125 23.6152 21.3723C23.376 21.5322 23.1896 21.7593 23.0795 22.0251C22.9694 22.2909 22.9406 22.5834 22.9967 22.8655C23.0528 23.1477 23.1914 23.4068 23.3948 23.6103C23.5982 23.8137 23.8574 23.9522 24.1395 24.0083C24.4217 24.0645 24.7141 24.0357 24.9799 23.9256C25.2457 23.8155 25.4729 23.629 25.6327 23.3898C25.7925 23.1506 25.8778 22.8694 25.8778 22.5817C25.8778 22.196 25.7246 21.826 25.4518 21.5532C25.179 21.2804 24.8091 21.1272 24.4233 21.1272ZM24.816 22.9745H24.1106V22.269H24.816V22.9745Z"
        fill="#2C3444"
      />
      <path
        d="M33.7905 30.4946C33.5028 30.4946 33.2216 30.5799 32.9824 30.7398C32.7432 30.8996 32.5567 31.1268 32.4467 31.3925C32.3366 31.6583 32.3078 31.9508 32.3639 32.2329C32.42 32.5151 32.5585 32.7743 32.762 32.9777C32.9654 33.1811 33.2246 33.3197 33.5067 33.3758C33.7889 33.4319 34.0813 33.4031 34.3471 33.293C34.6129 33.1829 34.8401 32.9965 34.9999 32.7573C35.1597 32.5181 35.245 32.2369 35.245 31.9492C35.245 31.5634 35.0918 31.1934 34.819 30.9207C34.5462 30.6479 34.1763 30.4946 33.7905 30.4946ZM34.1541 32.3128H33.4487V31.6074H34.1541V32.3128Z"
        fill="#2C3444"
      />
      <path
        d="M36.478 23.8875C36.1903 23.8875 35.9091 23.9728 35.6699 24.1326C35.4307 24.2924 35.2442 24.5196 35.1342 24.7854C35.0241 25.0512 34.9953 25.3436 35.0514 25.6258C35.1075 25.9079 35.246 26.1671 35.4495 26.3705C35.6529 26.5739 35.9121 26.7125 36.1942 26.7686C36.4764 26.8247 36.7688 26.7959 37.0346 26.6858C37.3004 26.5757 37.5276 26.3893 37.6874 26.1501C37.8472 25.9109 37.9325 25.6297 37.9325 25.342C37.9325 24.9562 37.7793 24.5863 37.5065 24.3135C37.2337 24.0407 36.8638 23.8875 36.478 23.8875ZM36.8634 25.7456H36.158V25.0402H36.8634V25.7456Z"
        fill="#2C3444"
      />
      <path
        d="M34.0639 17.3528C33.7762 17.3528 33.495 17.4381 33.2558 17.5979C33.0166 17.7578 32.8302 17.9849 32.7201 18.2507C32.61 18.5165 32.5812 18.8089 32.6373 19.0911C32.6934 19.3733 32.832 19.6324 33.0354 19.8359C33.2388 20.0393 33.498 20.1778 33.7802 20.2339C34.0623 20.2901 34.3548 20.2612 34.6206 20.1512C34.8863 20.0411 35.1135 19.8546 35.2733 19.6154C35.4332 19.3762 35.5185 19.095 35.5185 18.8073C35.5185 18.4216 35.3652 18.0516 35.0924 17.7788C34.8197 17.506 34.4497 17.3528 34.0639 17.3528ZM34.4494 19.171H33.7439V18.4655H34.4494V19.171Z"
        fill="#2C3444"
      />
      <path
        d="M25.0249 28.4983C24.7372 28.4983 24.456 28.5836 24.2168 28.7434C23.9776 28.9032 23.7911 29.1304 23.681 29.3962C23.5709 29.662 23.5421 29.9545 23.5983 30.2366C23.6544 30.5188 23.7929 30.7779 23.9963 30.9814C24.1998 31.1848 24.4589 31.3233 24.7411 31.3794C25.0232 31.4356 25.3157 31.4068 25.5815 31.2967C25.8473 31.1866 26.0744 31.0001 26.2343 30.7609C26.3941 30.5217 26.4794 30.2405 26.4794 29.9528C26.4794 29.5671 26.3262 29.1971 26.0534 28.9243C25.7806 28.6515 25.4106 28.4983 25.0249 28.4983ZM25.3885 30.4037H24.6612V29.6983H25.3885V30.4037Z"
        fill="#2C3444"
      />
      <path
        d="M1.19531 16.9891L34.1553 0L38.9808 3.54182L5.99531 21.4836L1.19531 16.9891Z"
        fill="#0776D4"
      />
      <path
        d="M33.2082 5.98926L53.681 25.4111L53.6482 32.9129L49.0555 35.4438L48.5646 28.3783L28.1719 9.04017L32.8882 5.98926H33.2082Z"
        fill="#0776D4"
      />
      <path
        d="M47.1382 29.9563L24.9891 40.7818L0 17.5454V25.7636L24.5018 48L47.5855 35.9891L47.1382 29.9563Z"
        fill="#F1701F"
      />
    </svg>
